<svg width="0" height="0" class="hidden">
  <symbol fill="none" xmlns="http://www.w3.org/2000/svg" viewBox="0 0 19 18" id="heart">
    <g clip-path="url(#clip0_55791_1053)">
      <path d="M16.13 3.45753C15.7469 3.07428 15.2921 2.77026 14.7915 2.56284C14.2909 2.35542 13.7543 2.24866 13.2125 2.24866C12.6706 2.24866 12.134 2.35542 11.6334 2.56284C11.1329 2.77026 10.678 3.07428 10.295 3.45753L9.49997 4.25253L8.70497 3.45753C7.9312 2.68376 6.88174 2.24906 5.78747 2.24906C4.69319 2.24906 3.64374 2.68376 2.86997 3.45753C2.0962 4.2313 1.6615 5.28075 1.6615 6.37503C1.6615 7.4693 2.0962 8.51876 2.86997 9.29253L3.66497 10.0875L9.49997 15.9225L15.335 10.0875L16.13 9.29253C16.5132 8.90946 16.8172 8.45464 17.0247 7.95404C17.2321 7.45345 17.3388 6.91689 17.3388 6.37503C17.3388 5.83316 17.2321 5.2966 17.0247 4.79601C16.8172 4.29542 16.5132 3.84059 16.13 3.45753Z" stroke="white" stroke-width="1.5" stroke-linecap="round" stroke-linejoin="round"></path>
    </g>
    <defs>
      <clipPath id="clip0_55791_1053">
        <rect width="18" height="18" fill="white" transform="translate(0.5)"></rect>
      </clipPath>
    </defs>
  </symbol>
  <symbol fill="none" xmlns="http://www.w3.org/2000/svg" viewBox="0 0 18 18" id="x">
    <path d="M13.5 4.5L4.5 13.5" stroke="white" stroke-width="2" stroke-linecap="round" stroke-linejoin="round"></path>
    <path d="M4.5 4.5L13.5 13.5" stroke="white" stroke-width="2" stroke-linecap="round" stroke-linejoin="round"></path>
  </symbol>

  <symbol fill="none" xmlns="http://www.w3.org/2000/svg" viewBox="0 0 19 16" id="Vector">
    <path d="M16.13 2.45753C15.7469 2.07428 15.2921 1.77026 14.7915 1.56284C14.2909 1.35542 13.7543 1.24866 13.2125 1.24866C12.6706 1.24866 12.134 1.35542 11.6334 1.56284C11.1329 1.77026 10.678 2.07428 10.295 2.45753L9.49997 3.25253L8.70497 2.45753C7.9312 1.68376 6.88174 1.24906 5.78747 1.24906C4.69319 1.24906 3.64374 1.68376 2.86997 2.45753C2.0962 3.2313 1.6615 4.28075 1.6615 5.37503C1.6615 6.4693 2.0962 7.51876 2.86997 8.29253L3.66497 9.08753L9.49997 14.9225L15.335 9.08753L16.13 8.29253C16.5132 7.90946 16.8172 7.45464 17.0247 6.95404C17.2321 6.45345 17.3388 5.91689 17.3388 5.37503C17.3388 4.83316 17.2321 4.2966 17.0247 3.79601C16.8172 3.29542 16.5132 2.84059 16.13 2.45753Z" stroke="white" stroke-width="1.5" stroke-linecap="round" stroke-linejoin="round"></path>
  </symbol>
    <symbol fill="none" xmlns="http://www.w3.org/2000/svg" viewBox="0 0 24 24" id="x-x">
    <path d="M18 6L6 18" stroke="#262626" stroke-width="2" stroke-linecap="round" stroke-linejoin="round"></path>
    <path d="M6 6L18 18" stroke="#262626" stroke-width="2" stroke-linecap="round" stroke-linejoin="round"></path>
  </symbol>
</svg>

