<svg width="12" height="12" class="hidden">
  <symbol fill="none" xmlns="http://www.w3.org/2000/svg" viewBox="0 0 20 20" id="calendar">
    <path d="M15.8333 3.33333H4.16667C3.24619 3.33333 2.5 4.07952 2.5 4.99999V16.6667C2.5 17.5871 3.24619 18.3333 4.16667 18.3333H15.8333C16.7538 18.3333 17.5 17.5871 17.5 16.6667V4.99999C17.5 4.07952 16.7538 3.33333 15.8333 3.33333Z" stroke="#262626" stroke-width="1.8" stroke-linecap="round" stroke-linejoin="round"></path>
    <path d="M13.333 1.66667V5" stroke="#262626" stroke-width="1.8" stroke-linecap="round" stroke-linejoin="round"></path>
    <path d="M6.66699 1.66667V5" stroke="#262626" stroke-width="1.8" stroke-linecap="round" stroke-linejoin="round"></path>
    <path d="M2.5 8.33333H17.5" stroke="#262626" stroke-width="1.8" stroke-linecap="round" stroke-linejoin="round"></path>
  </symbol>
  <symbol fill="none" xmlns="http://www.w3.org/2000/svg" viewBox="0 0 22 22" id="check">
    <path d="M18.3337 6.41666L8.25042 16.5L3.66699 11.9167" stroke="#08AA83" stroke-width="1.5" stroke-linecap="round" stroke-linejoin="round"></path>
  </symbol>
  <symbol fill="none" xmlns="http://www.w3.org/2000/svg" viewBox="0 0 22 22" id="cross-small">
    <path d="M17.4163 4.58334L4.58301 17.4167M4.58305 4.58334L17.4163 17.4167" stroke="#EF2447" stroke-width="2" stroke-linecap="round" stroke-linejoin="round"></path>
  </symbol>
  <symbol fill="none" xmlns="http://www.w3.org/2000/svg" viewBox="0 0 18 18" id="edit">
    <g clip-path="url(#clip0_55859_2229)">
      <path d="M12.75 2.25001C12.947 2.05303 13.1808 1.89677 13.4382 1.79017C13.6956 1.68356 13.9714 1.62869 14.25 1.62869C14.5286 1.62869 14.8044 1.68356 15.0618 1.79017C15.3192 1.89677 15.553 2.05303 15.75 2.25001C15.947 2.447 16.1032 2.68085 16.2098 2.93822C16.3164 3.19559 16.3713 3.47144 16.3713 3.75001C16.3713 4.02859 16.3164 4.30444 16.2098 4.56181C16.1032 4.81918 15.947 5.05303 15.75 5.25001L5.625 15.375L1.5 16.5L2.625 12.375L12.75 2.25001Z" stroke="#F6B83D" stroke-width="1.5" stroke-linecap="round" stroke-linejoin="round"></path>
    </g>
    <defs>
      <clipPath id="clip0_55859_2229">
        <rect width="18" height="18" fill="white"></rect>
      </clipPath>
    </defs>
  </symbol>
  <symbol fill="none" xmlns="http://www.w3.org/2000/svg" viewBox="0 0 22 22" id="eye">
    <g clip-path="url(#clip0_55848_2020)">
      <path d="M0.916016 11C0.916016 11 4.58268 3.66667 10.9993 3.66667C17.416 3.66667 21.0827 11 21.0827 11C21.0827 11 17.416 18.3333 10.9993 18.3333C4.58268 18.3333 0.916016 11 0.916016 11Z" stroke="#F6B83D" stroke-width="2" stroke-linecap="round" stroke-linejoin="round"></path>
      <path d="M11 13.75C12.5188 13.75 13.75 12.5188 13.75 11C13.75 9.48122 12.5188 8.25 11 8.25C9.48122 8.25 8.25 9.48122 8.25 11C8.25 12.5188 9.48122 13.75 11 13.75Z" stroke="#F6B83D" stroke-width="2" stroke-linecap="round" stroke-linejoin="round"></path>
    </g>
    <defs>
      <clipPath id="clip0_55848_2020">
        <rect width="22" height="22" fill="white"></rect>
      </clipPath>
    </defs>
  </symbol>
  <symbol fill="none" xmlns="http://www.w3.org/2000/svg" viewBox="0 0 22 22" id="eye-off">
    <g clip-path="url(#clip0_55848_2014)">
      <path d="M16.4463 16.445C14.8793 17.6394 12.9713 18.3011 11.0013 18.3333C4.58464 18.3333 0.917969 11 0.917969 11C2.0582 8.87507 3.63968 7.01855 5.5563 5.555M9.0763 3.88666C9.70727 3.73897 10.3533 3.66514 11.0013 3.66666C17.418 3.66666 21.0846 11 21.0846 11C20.5282 12.041 19.8646 13.021 19.1046 13.9242M12.9446 12.9433C12.6929 13.2135 12.3893 13.4302 12.0519 13.5805C11.7146 13.7308 11.3505 13.8117 10.9812 13.8182C10.612 13.8247 10.2452 13.7568 9.90278 13.6184C9.56036 13.4801 9.2493 13.2743 8.98816 13.0131C8.72703 12.752 8.52116 12.4409 8.38285 12.0985C8.24454 11.7561 8.17662 11.3893 8.18313 11.0201C8.18965 10.6508 8.27047 10.2867 8.42077 9.94936C8.57108 9.61203 8.78778 9.30843 9.05797 9.05666" stroke="#F6B83D" stroke-width="2" stroke-linecap="round" stroke-linejoin="round"></path>
      <path d="M0.917969 0.916672L21.0846 21.0833" stroke="#F6B83D" stroke-width="2" stroke-linecap="round" stroke-linejoin="round"></path>
    </g>
    <defs>
      <clipPath id="clip0_55848_2014">
        <rect width="22" height="22" fill="white"></rect>
      </clipPath>
    </defs>
  </symbol>
  <symbol fill="none" xmlns="http://www.w3.org/2000/svg" viewBox="0 0 24 24" id="female">
    <path d="M12 13C14.7614 13 17 10.7614 17 8C17 5.23858 14.7614 3 12 3C9.23858 3 7 5.23858 7 8C7 10.7614 9.23858 13 12 13ZM12 13L12 21M9 18L15 18" stroke="#F43F5E" stroke-width="1.5" stroke-linecap="round" stroke-linejoin="round"></path>
  </symbol>
  <symbol fill="none" xmlns="http://www.w3.org/2000/svg" viewBox="0 0 24 24" id="fi-rr-angle-small-left">
    <path d="M13.3992 12.71C13.4929 12.6171 13.5673 12.5065 13.6181 12.3846C13.6688 12.2628 13.695 12.1321 13.695 12C13.695 11.868 13.6688 11.7373 13.6181 11.6155C13.5673 11.4936 13.4929 11.383 13.3992 11.29L8.80916 6.71003C8.71543 6.61707 8.64104 6.50647 8.59027 6.38461C8.5395 6.26275 8.51336 6.13204 8.51336 6.00003C8.51336 5.86802 8.5395 5.73731 8.59027 5.61545C8.64104 5.49359 8.71543 5.38299 8.80916 5.29003C8.99653 5.10378 9.24998 4.99924 9.51416 4.99924C9.77835 4.99924 10.0318 5.10378 10.2192 5.29003L14.8092 9.88004C15.371 10.4425 15.6865 11.205 15.6865 12C15.6865 12.795 15.371 13.5575 14.8092 14.12L10.2192 18.71C10.0329 18.8948 9.7815 18.9989 9.51916 19C9.38756 19.0008 9.25709 18.9756 9.13526 18.9258C9.01342 18.8761 8.9026 18.8027 8.80916 18.71C8.71543 18.6171 8.64104 18.5065 8.59027 18.3846C8.5395 18.2628 8.51336 18.1321 8.51336 18C8.51336 17.868 8.5395 17.7373 8.59027 17.6155C8.64104 17.4936 8.71543 17.383 8.80916 17.29L13.3992 12.71Z" fill="#262626"></path>
  </symbol>
  <symbol fill="none" xmlns="http://www.w3.org/2000/svg" viewBox="0 0 19 17" id="hart">
    <path fill-rule="evenodd" clip-rule="evenodd" d="M9.4935 2.43447C7.6541 0.262682 4.58677 -0.321522 2.28212 1.66718C-0.0225229 3.65589 -0.346985 6.98091 1.46287 9.33296C2.62209 10.8395 5.59088 13.6331 7.5756 15.447C8.23514 16.0498 8.56492 16.3512 8.95992 16.4721C9.29948 16.576 9.68752 16.576 10.0271 16.4721C10.4221 16.3512 10.7519 16.0498 11.4114 15.447C13.3961 13.6331 16.3649 10.8395 17.5241 9.33296C19.334 6.98091 19.0491 3.63497 16.7049 1.66718C14.3606 -0.300603 11.3329 0.262682 9.4935 2.43447Z" fill="#F6B83D"></path>
  </symbol>
  <symbol fill="none" xmlns="http://www.w3.org/2000/svg" viewBox="0 0 19 17" id="hartwhite">
    <path fill-rule="evenodd" clip-rule="evenodd" d="M9.4935 2.43447C7.6541 0.262682 4.58677 -0.321522 2.28212 1.66718C-0.0225229 3.65589 -0.346985 6.98091 1.46287 9.33296C2.62209 10.8395 5.59088 13.6331 7.5756 15.447C8.23514 16.0498 8.56492 16.3512 8.95992 16.4721C9.29948 16.576 9.68752 16.576 10.0271 16.4721C10.4221 16.3512 10.7519 16.0498 11.4114 15.447C13.3961 13.6331 16.3649 10.8395 17.5241 9.33296C19.334 6.98091 19.0491 3.63497 16.7049 1.66718C14.3606 -0.300603 11.3329 0.262682 9.4935 2.43447Z" fill="white"></path>
  </symbol>
  <symbol fill="none" xmlns="http://www.w3.org/2000/svg" viewBox="0 0 24 24" id="healthicons_sexual-reproductive-health">
    <path fill-rule="evenodd" clip-rule="evenodd" d="M8.77074 7.74498C8.05311 7.46474 7.26305 7.42921 6.52317 7.6439C5.78328 7.85859 5.13495 8.31149 4.67878 8.93232C4.22261 9.55315 3.98411 10.3072 4.00031 11.0774C4.0165 11.8477 4.28647 12.591 4.76833 13.1921C5.25019 13.7932 5.91699 14.2185 6.66524 14.4019C7.41349 14.5853 8.20136 14.5166 8.90658 14.2064C9.61179 13.8963 10.1949 13.362 10.5655 12.6866C10.936 12.0111 11.0732 11.2323 10.9558 10.4709C10.9459 10.406 10.9488 10.3398 10.9644 10.276C10.98 10.2123 11.008 10.1522 11.0468 10.0993C11.0857 10.0463 11.1345 10.0016 11.1906 9.96753C11.2468 9.93349 11.309 9.91083 11.3739 9.90086C11.4388 9.89088 11.505 9.89378 11.5688 9.90939C11.6325 9.925 11.6926 9.95302 11.7455 9.99184C11.7985 10.0307 11.8432 10.0795 11.8773 10.1357C11.9113 10.1918 11.934 10.2541 11.9439 10.3189C12.0947 11.2979 11.9181 12.2992 11.4416 13.1675C10.9651 14.0358 10.2153 14.7226 9.30862 15.1213C8.40192 15.5199 7.38899 15.6081 6.42701 15.3723C5.46503 15.1364 4.6078 14.5896 3.98833 13.8168C3.36886 13.0439 3.0218 12.0882 3.00099 11.098C2.98019 10.1077 3.28681 9.1383 3.87327 8.34011C4.45974 7.54193 5.29325 6.95963 6.24448 6.68358C7.1957 6.40752 8.21144 6.45314 9.13409 6.81336C9.19607 6.8366 9.25281 6.87193 9.30102 6.91728C9.34923 6.96263 9.38796 7.01711 9.41495 7.07755C9.44194 7.13798 9.45665 7.20318 9.45824 7.26936C9.45982 7.33553 9.44825 7.40136 9.42418 7.46302C9.40012 7.52468 9.36405 7.58095 9.31806 7.62856C9.27208 7.67617 9.21709 7.71417 9.1563 7.74035C9.09551 7.76654 9.03012 7.78039 8.96393 7.7811C8.89775 7.7818 8.83208 7.76986 8.77074 7.74498Z" fill="#F6B83D"></path>
    <path fill-rule="evenodd" clip-rule="evenodd" d="M6.99805 19.5002V15.5018C6.99805 15.3693 7.0507 15.2421 7.14443 15.1484C7.23816 15.0547 7.36529 15.002 7.49784 15.002C7.6304 15.002 7.75752 15.0547 7.85125 15.1484C7.94498 15.2421 7.99764 15.3693 7.99764 15.5018V19.5002C7.99764 19.6328 7.94498 19.7599 7.85125 19.8536C7.75752 19.9473 7.6304 20 7.49784 20C7.36529 20 7.23816 19.9473 7.14443 19.8536C7.0507 19.7599 6.99805 19.6328 6.99805 19.5002Z" fill="#F6B83D"></path>
    <path fill-rule="evenodd" clip-rule="evenodd" d="M5.49902 17.0012C5.49902 16.8687 5.55168 16.7415 5.64541 16.6478C5.73914 16.5541 5.86627 16.5014 5.99882 16.5014H8.9976C9.13016 16.5014 9.25728 16.5541 9.35101 16.6478C9.44474 16.7415 9.4974 16.8687 9.4974 17.0012C9.4974 17.1338 9.44474 17.2609 9.35101 17.3546C9.25728 17.4484 9.13016 17.501 8.9976 17.501H5.99882C5.86627 17.501 5.73914 17.4484 5.64541 17.3546C5.55168 17.2609 5.49902 17.1338 5.49902 17.0012ZM14.4464 7.63653C13.8925 7.48016 13.3086 7.46285 12.7464 7.58614C12.1843 7.70942 11.6612 7.96949 11.2236 8.34329C10.786 8.71709 10.4473 9.19308 10.2377 9.72906C10.028 10.265 9.95383 10.8445 10.0217 11.416C10.0298 11.4813 10.0249 11.5477 10.0073 11.6111C9.98972 11.6746 9.95975 11.7339 9.91914 11.7858C9.87853 11.8376 9.82808 11.8809 9.77068 11.9132C9.71328 11.9455 9.65006 11.9661 9.58467 11.9739C9.51928 11.9816 9.45299 11.9764 9.38963 11.9585C9.32626 11.9405 9.26707 11.9103 9.21544 11.8694C9.16381 11.8285 9.12077 11.7778 9.08879 11.7203C9.05681 11.6627 9.03652 11.5994 9.02909 11.5339C8.91232 10.5504 9.12346 9.55573 9.62975 8.70441C10.136 7.85309 10.9092 7.19268 11.8292 6.82567C12.7491 6.45865 13.7645 6.40556 14.7178 6.67462C15.671 6.94368 16.5088 7.51985 17.1011 8.31372C17.6935 9.1076 18.0072 10.0748 17.9936 11.0652C17.9801 12.0556 17.64 13.0138 17.0262 13.7912C16.4124 14.5686 15.5592 15.1216 14.5989 15.3645C13.6387 15.6074 12.6251 15.5265 11.7155 15.1345C11.6552 15.1085 11.6006 15.0709 11.5549 15.0239C11.5091 14.9768 11.4731 14.9212 11.4488 14.8602C11.3998 14.7371 11.4017 14.5995 11.4541 14.4777C11.5065 14.356 11.6052 14.2601 11.7283 14.211C11.8515 14.162 11.9891 14.1639 12.1108 14.2164C12.5506 14.4058 13.0245 14.503 13.5033 14.5019C13.9821 14.5008 14.4556 14.4014 14.8944 14.2099C15.3332 14.0184 15.7281 13.7389 16.0546 13.3886C16.381 13.0384 16.6321 12.6248 16.7922 12.1736C16.9524 11.7224 17.0182 11.2431 16.9857 10.7654C16.9531 10.2877 16.8229 9.82181 16.603 9.39649C16.3831 8.97118 16.0782 8.59553 15.7072 8.2928C15.3363 7.99007 14.9072 7.7667 14.4464 7.63653Z" fill="#F6B83D"></path>
    <path fill-rule="evenodd" clip-rule="evenodd" d="M16.3915 8.60812C16.2978 8.51439 16.2451 8.38729 16.2451 8.25476C16.2451 8.12223 16.2978 7.99513 16.3915 7.9014L20.1399 4.15293C20.186 4.10519 20.2412 4.06711 20.3022 4.04092C20.3631 4.01473 20.4287 4.00094 20.4951 4.00036C20.5614 3.99979 20.6273 4.01243 20.6887 4.03756C20.7501 4.06269 20.8059 4.0998 20.8528 4.14673C20.8998 4.19366 20.9369 4.24946 20.962 4.31088C20.9871 4.37231 20.9998 4.43812 20.9992 4.50448C20.9986 4.57085 20.9848 4.63643 20.9586 4.69741C20.9325 4.75838 20.8944 4.81353 20.8466 4.85964L17.0982 8.60812C17.0044 8.70181 16.8773 8.75445 16.7448 8.75445C16.6123 8.75445 16.4852 8.70181 16.3915 8.60812Z" fill="#F6B83D"></path>
    <path fill-rule="evenodd" clip-rule="evenodd" d="M20.455 7.50508C20.3893 7.50423 20.3245 7.49046 20.2642 7.46456C20.2039 7.43865 20.1493 7.40112 20.1035 7.35411C20.0577 7.30709 20.0216 7.25151 19.9972 7.19055C19.9729 7.12958 19.9608 7.06442 19.9617 6.99878L19.9867 5.01259L18.0005 5.03758C17.8679 5.0393 17.7401 4.9883 17.6452 4.89579C17.5502 4.80327 17.4959 4.67683 17.4942 4.54428C17.4925 4.41172 17.5435 4.28391 17.636 4.18897C17.7285 4.09402 17.8549 4.03971 17.9875 4.03798L20.9993 4L20.9613 7.01178C20.9604 7.07741 20.9467 7.14224 20.9208 7.20255C20.8949 7.26287 20.8573 7.31749 20.8103 7.3633C20.7633 7.4091 20.7077 7.4452 20.6467 7.46953C20.5858 7.49386 20.5206 7.50594 20.455 7.50508Z" fill="#F6B83D"></path>
  </symbol>
  <symbol fill="none" xmlns="http://www.w3.org/2000/svg" viewBox="0 0 18 18" id="heart">
    <path d="M15.6306 3.4575C15.2475 3.07425 14.7927 2.77023 14.2921 2.56281C13.7915 2.35539 13.2549 2.24863 12.7131 2.24863C12.1712 2.24863 11.6347 2.35539 11.1341 2.56281C10.6335 2.77023 10.1786 3.07425 9.79558 3.4575L9.00058 4.2525L8.20558 3.4575C7.43181 2.68373 6.38235 2.24903 5.28808 2.24903C4.1938 2.24903 3.14435 2.68373 2.37058 3.4575C1.59681 4.23127 1.16211 5.28072 1.16211 6.375C1.16211 7.46927 1.59681 8.51873 2.37058 9.2925L3.16558 10.0875L9.00058 15.9225L14.8356 10.0875L15.6306 9.2925C16.0138 8.90943 16.3178 8.45461 16.5253 7.95401C16.7327 7.45342 16.8394 6.91686 16.8394 6.375C16.8394 5.83313 16.7327 5.29657 16.5253 4.79598C16.3178 4.29539 16.0138 3.84056 15.6306 3.4575Z" stroke="#F6B83D" stroke-width="1.5" stroke-linecap="round" stroke-linejoin="round"></path>
  </symbol>
  <symbol fill="none" xmlns="http://www.w3.org/2000/svg" viewBox="0 0 24 24" id="male">
    <path d="M12 11C9.23858 11 7 13.2386 7 16C7 18.7614 9.23858 21 12 21C14.7614 21 17 18.7614 17 16C17 13.2386 14.7614 11 12 11ZM12 11V3M12 3L16 7M12 3L8 7" stroke="#54ADFF" stroke-width="1.5" stroke-linecap="round" stroke-linejoin="round"></path>
  </symbol>
  <symbol fill="none" xmlns="http://www.w3.org/2000/svg" viewBox="0 0 18 18" id="search">
    <path d="M8.25 14.25C11.5637 14.25 14.25 11.5637 14.25 8.25C14.25 4.93629 11.5637 2.25 8.25 2.25C4.93629 2.25 2.25 4.93629 2.25 8.25C2.25 11.5637 4.93629 14.25 8.25 14.25Z" stroke="#262626" stroke-width="2" stroke-linecap="round" stroke-linejoin="round"></path>
    <path d="M15.7508 15.75L12.4883 12.4875" stroke="#262626" stroke-width="2" stroke-linecap="round" stroke-linejoin="round"></path>
  </symbol>
  <symbol fill="none" xmlns="http://www.w3.org/2000/svg" viewBox="0 0 16 16" id="star">
    <g clip-path="url(#clip0_55857_2203)">
      <path d="M6.20021 4.69703L8 1.28579L9.79979 4.69703C9.95896 4.9987 10.2491 5.20947 10.5851 5.26762L14.3856 5.92519L11.6975 8.69103C11.4598 8.93563 11.3489 9.27666 11.3975 9.61427L11.9465 13.4319L8.48537 11.7301C8.17929 11.5795 7.82071 11.5796 7.51463 11.7301L4.05348 13.4319L4.6025 9.61427C4.65105 9.27666 4.54024 8.93563 4.30252 8.69103L1.6144 5.92519L5.41486 5.26762C5.75095 5.20947 6.04104 4.9987 6.20021 4.69703ZM14.5177 5.78928L14.5175 5.78947L14.5177 5.78928ZM3.8834 13.5155C3.88344 13.5155 3.88349 13.5155 3.88353 13.5155L3.8834 13.5155Z" fill="#FFC531" stroke="#FFC531" stroke-width="1.2"></path>
    </g>
    <defs>
      <clipPath id="clip0_55857_2203">
        <rect width="16" height="16" fill="white"></rect>
      </clipPath>
    </defs>
  </symbol>
  <symbol fill="none" xmlns="http://www.w3.org/2000/svg" viewBox="0 0 18 18" id="trash">
    <path d="M2.25 4.5H3.75H15.75" stroke="#F6B83D" stroke-width="1.5" stroke-linecap="round" stroke-linejoin="round"></path>
    <path d="M14.25 4.5V15C14.25 15.3978 14.092 15.7794 13.8107 16.0607C13.5294 16.342 13.1478 16.5 12.75 16.5H5.25C4.85218 16.5 4.47064 16.342 4.18934 16.0607C3.90804 15.7794 3.75 15.3978 3.75 15V4.5M6 4.5V3C6 2.60218 6.15804 2.22064 6.43934 1.93934C6.72065 1.65804 7.10218 1.5 7.5 1.5H10.5C10.8978 1.5 11.2794 1.65804 11.5607 1.93934C11.842 2.22064 12 2.60218 12 3V4.5" stroke="#F6B83D" stroke-width="1.5" stroke-linecap="round" stroke-linejoin="round"></path>
    <path d="M7.5 8.25V12.75" stroke="#F6B83D" stroke-width="1.5" stroke-linecap="round" stroke-linejoin="round"></path>
    <path d="M10.5 8.25V12.75" stroke="#F6B83D" stroke-width="1.5" stroke-linecap="round" stroke-linejoin="round"></path>
  </symbol>

  <symbol fill="none" xmlns="http://www.w3.org/2000/svg" viewBox="0 0 8 14" id="Vector">
    <path d="M2.59986 7.71004C2.50613 7.61708 2.43174 7.50648 2.38097 7.38462C2.3302 7.26276 2.30406 7.13205 2.30406 7.00004C2.30406 6.86803 2.3302 6.73732 2.38097 6.61546C2.43174 6.49361 2.50613 6.383 2.59986 6.29004L7.18986 1.71003C7.28359 1.61707 7.35798 1.50647 7.40875 1.38461C7.45952 1.26275 7.48566 1.13204 7.48566 1.00003C7.48566 0.868019 7.45952 0.737313 7.40875 0.615454C7.35798 0.493594 7.28359 0.382993 7.18986 0.29003C7.0025 0.103779 6.74905 -0.000762939 6.48486 -0.000762939C6.22067 -0.000762939 5.96722 0.103779 5.77986 0.29003L1.18986 4.88004C0.628058 5.44254 0.3125 6.20504 0.3125 7.00004C0.3125 7.79505 0.628058 8.55754 1.18986 9.12005L5.77986 13.7101C5.96612 13.8948 6.21752 13.9989 6.47986 14.0001C6.61147 14.0008 6.74193 13.9756 6.86377 13.9258C6.9856 13.8761 7.09642 13.8027 7.18986 13.7101C7.28359 13.6171 7.35798 13.5065 7.40875 13.3846C7.45952 13.2628 7.48566 13.1321 7.48566 13.0001C7.48566 12.868 7.45952 12.7373 7.40875 12.6155C7.35798 12.4936 7.28359 12.383 7.18986 12.2901L2.59986 7.71004Z" fill="#262626" fill-opacity="0.5"></path>
  </symbol>
  


<svg width="0" height="0" class="hidden">
  <symbol fill="none" xmlns="http://www.w3.org/2000/svg" viewBox="0 0 24 24" id="user-02 (1)">
    <path d="M11.9999 15C8.82977 15 6.01065 16.5306 4.21585 18.906C3.82956 19.4172 3.63641 19.6728 3.64273 20.0183C3.64761 20.2852 3.81521 20.6219 4.02522 20.7867C4.29704 21 4.67372 21 5.42708 21H18.5726C19.326 21 19.7027 21 19.9745 20.7867C20.1845 20.6219 20.3521 20.2852 20.357 20.0183C20.3633 19.6728 20.1701 19.4172 19.7839 18.906C17.9891 16.5306 15.1699 15 11.9999 15Z" fill="#F6B83D" stroke="#F6B83D" stroke-width="2" stroke-linecap="round" stroke-linejoin="round"></path>
    <path d="M12 12C14.4853 12 16.5 9.98528 16.5 7.5C16.5 5.01472 14.4853 3 12 3C9.51472 3 7.5 5.01472 7.5 7.5C7.5 9.98528 9.51472 12 12 12Z" fill="#F6B83D" stroke="#F6B83D" stroke-width="2" stroke-linecap="round" stroke-linejoin="round"></path>
  </symbol>
</svg>
<svg width="12" height="12" class="hidden">
  <symbol fill="none" xmlns="http://www.w3.org/2000/svg" viewBox="0 0 24 25" id="03">
    <g filter="url(#filter0_d_55782_210)">
      <path d="M11.9999 15C8.82977 15 6.01065 16.5306 4.21585 18.906C3.82956 19.4172 3.63641 19.6728 3.64273 20.0183C3.64761 20.2852 3.81521 20.6219 4.02522 20.7867C4.29704 21 4.67372 21 5.42708 21H18.5726C19.326 21 19.7027 21 19.9745 20.7867C20.1845 20.6219 20.3521 20.2852 20.357 20.0183C20.3633 19.6728 20.1701 19.4172 19.7839 18.906C17.9891 16.5306 15.1699 15 11.9999 15Z" fill="#F6B83D" stroke="#F6B83D" stroke-width="2" stroke-linecap="round" stroke-linejoin="round"></path>
    <path d="M12 12C14.4853 12 16.5 9.98528 16.5 7.5C16.5 5.01472 14.4853 3 12 3C9.51472 3 7.5 5.01472 7.5 7.5C7.5 9.98528 9.51472 12 12 12Z" fill="#F6B83D" stroke="#F6B83D" stroke-width="2" stroke-linecap="round" stroke-linejoin="round"></path>
    </g>
    <defs>
      <filter id="filter0_d_55782_210" x="-1" y="0" width="26" height="26" filterUnits="userSpaceOnUse" color-interpolation-filters="sRGB">
        <feFlood flood-opacity="0" result="BackgroundImageFix"></feFlood>
        <feColorMatrix in="SourceAlpha" type="matrix" values="0 0 0 0 0 0 0 0 0 0 0 0 0 0 0 0 0 0 127 0" result="hardAlpha"></feColorMatrix>
        <feOffset dy="4"></feOffset>
        <feGaussianBlur stdDeviation="2"></feGaussianBlur>
        <feComposite in2="hardAlpha" operator="out"></feComposite>
        <feColorMatrix type="matrix" values="0 0 0 0 0 0 0 0 0 0 0 0 0 0 0 0 0 0 0.25 0"></feColorMatrix>
        <feBlend mode="normal" in2="BackgroundImageFix" result="effect1_dropShadow_55782_210"></feBlend>
        <feBlend mode="normal" in="SourceGraphic" in2="effect1_dropShadow_55782_210" result="shape"></feBlend>
      </filter>
    </defs>
  </symbol>
</svg>
<svg width="0" height="0" class="hidden">
  <symbol fill="none" xmlns="http://www.w3.org/2000/svg" viewBox="0 0 18 18" id="trash-2">
    <path d="M2.25 4.5H3.75H15.75" stroke="#F6B83D" stroke-width="1.5" stroke-linecap="round" stroke-linejoin="round"></path>
    <path d="M14.25 4.5V15C14.25 15.3978 14.092 15.7794 13.8107 16.0607C13.5294 16.342 13.1478 16.5 12.75 16.5H5.25C4.85218 16.5 4.47064 16.342 4.18934 16.0607C3.90804 15.7794 3.75 15.3978 3.75 15V4.5M6 4.5V3C6 2.60218 6.15804 2.22064 6.43934 1.93934C6.72065 1.65804 7.10218 1.5 7.5 1.5H10.5C10.8978 1.5 11.2794 1.65804 11.5607 1.93934C11.842 2.22064 12 2.60218 12 3V4.5" stroke="#F6B83D" stroke-width="1.5" stroke-linecap="round" stroke-linejoin="round"></path>
    <path d="M7.5 8.25V12.75" stroke="#F6B83D" stroke-width="1.5" stroke-linecap="round" stroke-linejoin="round"></path>
    <path d="M10.5 8.25V12.75" stroke="#F6B83D" stroke-width="1.5" stroke-linecap="round" stroke-linejoin="round"></path>
  </symbol>
</svg>

<svg width="0" height="0" class="hidden">
  <symbol fill="none" xmlns="http://www.w3.org/2000/svg" viewBox="0 0 34 32" id="Paw">
    <path d="M12.1875 0.875C10.7162 0.875 9.43475 1.711 8.62075 2.85225C7.80675 3.9935 7.375 5.4675 7.375 7.0625C7.375 8.6575 7.80675 10.1329 8.62075 11.2741C9.43475 12.4154 10.7162 13.25 12.1875 13.25C13.6588 13.25 14.9402 12.414 15.7542 11.2728C16.5683 10.1315 17 8.6575 17 7.0625C17 5.4675 16.5683 3.99213 15.7542 2.85087C14.9402 1.70962 13.6588 0.875 12.1875 0.875ZM17 7.0625C17 8.6575 17.4317 10.1329 18.2458 11.2741C19.0597 12.4154 20.3426 13.25 21.8125 13.25C23.2838 13.25 24.5653 12.414 25.3792 11.2728C26.1933 10.1315 26.625 8.6575 26.625 7.0625C26.625 5.4675 26.1933 3.99213 25.3792 2.85087C24.5653 1.70962 23.2838 0.875 21.8125 0.875C20.3412 0.875 19.0597 1.711 18.2458 2.85225C17.4317 3.9935 17 5.4675 17 7.0625ZM12.1875 3.625C12.6165 3.625 13.0895 3.8395 13.5213 4.44175C13.9475 5.04262 14.25 5.99963 14.25 7.0625C14.25 8.12538 13.9475 9.08375 13.5213 9.68325C13.0895 10.2855 12.6165 10.5 12.1875 10.5C11.7585 10.5 11.2855 10.2855 10.8537 9.68325C10.4275 9.08238 10.125 8.12538 10.125 7.0625C10.125 5.99963 10.4275 5.04125 10.8537 4.44175C11.2855 3.8395 11.7585 3.625 12.1875 3.625ZM21.8125 3.625C22.2415 3.625 22.7145 3.8395 23.1462 4.44175C23.5725 5.04262 23.875 5.99963 23.875 7.0625C23.875 8.12538 23.5725 9.08375 23.1462 9.68325C22.7145 10.2855 22.2415 10.5 21.8125 10.5C21.3835 10.5 20.9105 10.2855 20.4788 9.68325C20.0525 9.08238 19.75 8.12538 19.75 7.0625C19.75 5.99963 20.0525 5.04125 20.4788 4.44175C20.9105 3.8395 21.3835 3.625 21.8125 3.625ZM5.3125 10.5C3.84125 10.5 2.55975 11.336 1.74575 12.4773C0.93175 13.6185 0.5 15.0925 0.5 16.6875C0.5 18.2825 0.93175 19.7579 1.74575 20.8991C2.55975 22.0404 3.84125 22.875 5.3125 22.875C6.78375 22.875 8.06525 22.039 8.87925 20.8978C9.69325 19.7565 10.125 18.2825 10.125 16.6875C10.125 15.0925 9.69325 13.6171 8.87925 12.4759C8.06525 11.3346 6.78375 10.5 5.3125 10.5ZM28.6875 10.5C27.2162 10.5 25.9347 11.336 25.1208 12.4773C24.3067 13.6185 23.875 15.0925 23.875 16.6875C23.875 18.2825 24.3067 19.7579 25.1208 20.8991C25.9347 22.0404 27.2162 22.875 28.6875 22.875C30.1588 22.875 31.4403 22.039 32.2542 20.8978C33.0682 19.7565 33.5 18.2825 33.5 16.6875C33.5 15.0925 33.0682 13.6171 32.2542 12.4759C31.4403 11.3346 30.1588 10.5 28.6875 10.5ZM5.3125 13.25C5.7415 13.25 6.2145 13.4645 6.64625 14.0668C7.0725 14.6676 7.375 15.6246 7.375 16.6875C7.375 17.7504 7.0725 18.7088 6.64625 19.3083C6.2145 19.9105 5.7415 20.125 5.3125 20.125C4.8835 20.125 4.4105 19.9105 3.97875 19.3083C3.5525 18.7088 3.25 17.7504 3.25 16.6875C3.25 15.6246 3.5525 14.6663 3.97875 14.0668C4.4105 13.4645 4.8835 13.25 5.3125 13.25ZM28.6875 13.25C29.1165 13.25 29.5895 13.4645 30.0212 14.0668C30.4475 14.6676 30.75 15.6246 30.75 16.6875C30.75 17.7504 30.4475 18.7088 30.0212 19.3083C29.5895 19.9105 29.1165 20.125 28.6875 20.125C28.2585 20.125 27.7855 19.9105 27.3538 19.3083C26.9275 18.7074 26.625 17.7504 26.625 16.6875C26.625 15.6246 26.9275 14.6663 27.3538 14.0668C27.7855 13.4645 28.2585 13.25 28.6875 13.25ZM17 16C15.1671 16 13.8884 17.1894 13.26 18.2344C12.6357 19.2794 12.2507 20.1484 11.885 20.5114C11.6746 20.7273 10.3478 21.2264 8.9645 21.9318C8.27288 22.2851 7.57575 22.7568 6.98862 23.4786C6.39737 24.2005 5.99863 25.1974 5.99863 26.3153C5.99863 28.9553 8.17112 31.1278 10.8111 31.1278C12.0019 31.1278 13.2449 30.7428 14.4618 30.399C15.6841 30.047 17 29.75 17 29.75C17 29.75 18.3159 30.047 19.5355 30.3963C20.7537 30.74 21.9967 31.125 23.1875 31.125C25.8275 31.125 28 28.9525 28 26.3125C28 25.2208 27.5971 24.2225 27.01 23.5213C26.4256 22.8159 25.7216 22.38 25.0355 22.0156C23.6605 21.2869 22.3089 20.7094 22.1136 20.5114C21.7836 20.1855 21.4124 19.2876 20.7799 18.2371C20.1488 17.1825 18.8425 16 17 16ZM17 18.75C17.9075 18.75 18.0079 18.97 18.4163 19.652C18.8288 20.3326 19.1368 21.489 20.135 22.4886C21.2694 23.6161 22.7021 23.8636 23.7458 24.4191C24.2682 24.6969 24.667 24.9925 24.9062 25.2785C25.1441 25.5631 25.25 25.823 25.25 26.3098C25.25 27.4648 24.3425 28.3723 23.1875 28.3723C22.7887 28.3723 21.5045 28.0698 20.3083 27.726C19.112 27.3864 18.122 26.9973 17 26.9973C15.878 26.9973 14.888 27.3864 13.6917 27.726C12.4955 28.0698 11.2113 28.3723 10.8125 28.3723C9.6575 28.3723 8.75 27.4648 8.75 26.3098C8.75 25.7556 8.8655 25.471 9.09375 25.1905C9.322 24.9114 9.74275 24.635 10.2542 24.3751C11.2773 23.8526 12.7017 23.6464 13.8636 22.4845C14.8715 21.4711 15.174 20.2776 15.5824 19.6039C15.9839 18.9301 16.0801 18.7445 16.9986 18.7445L17 18.75Z" fill="#F6B83D"></path>
  </symbol>
</svg>
<svg xmlns="http://www.w3.org/2000/svg" width="1em" height="1em" viewBox="0 0 32 32" id="paw"><path fill="black" d="M12.5 5c-1.07 0-2 .61-2.594 1.438C9.312 7.266 9 8.34 9 9.5s.313 2.234.906 3.063C10.5 13.39 11.43 14 12.5 14c1.07 0 2-.61 2.594-1.438c.594-.828.906-1.902.906-3.062s-.313-2.234-.906-3.063C14.5 5.61 13.57 5 12.5 5M16 9.5c0 1.16.313 2.234.906 3.063C17.5 13.39 18.43 14 19.5 14c1.07 0 2-.61 2.594-1.438c.593-.828.906-1.902.906-3.062s-.313-2.234-.906-3.063C21.5 5.61 20.57 5 19.5 5c-1.07 0-2 .61-2.594 1.438C16.313 7.266 16 8.34 16 9.5M12.5 7c.313 0 .656.156.969.594C13.78 8.03 14 8.727 14 9.5c0 .773-.219 1.469-.531 1.906c-.313.438-.656.594-.969.594c-.313 0-.656-.156-.969-.594C11.22 10.97 11 10.273 11 9.5c0-.773.219-1.469.531-1.906c.313-.438.656-.594.969-.594m7 0c.313 0 .656.156.969.594C20.78 8.03 21 8.727 21 9.5c0 .773-.219 1.469-.531 1.906c-.313.438-.657.594-.969.594c-.313 0-.656-.156-.969-.594C18.22 10.97 18 10.273 18 9.5c0-.773.219-1.469.531-1.906c.313-.438.657-.594.969-.594m-12 5c-1.07 0-2 .61-2.594 1.438C4.313 14.265 4 15.34 4 16.5s.313 2.234.906 3.063C5.5 20.39 6.43 21 7.5 21c1.07 0 2-.61 2.594-1.438c.594-.828.906-1.902.906-3.062s-.313-2.234-.906-3.063C9.5 12.61 8.57 12 7.5 12m17 0c-1.07 0-2 .61-2.594 1.438c-.593.828-.906 1.902-.906 3.062s.313 2.234.906 3.063C22.5 20.39 23.43 21 24.5 21c1.07 0 2-.61 2.594-1.438c.593-.828.906-1.902.906-3.062s-.313-2.234-.906-3.063C26.5 12.61 25.57 12 24.5 12m-17 2c.313 0 .656.156.969.594C8.78 15.03 9 15.727 9 16.5c0 .773-.219 1.469-.531 1.906c-.313.438-.656.594-.969.594c-.313 0-.656-.156-.969-.594C6.22 17.97 6 17.273 6 16.5c0-.773.219-1.469.531-1.906c.313-.438.657-.594.969-.594m17 0c.313 0 .656.156.969.594c.312.437.531 1.133.531 1.906c0 .773-.219 1.469-.531 1.906c-.313.438-.657.594-.969.594c-.313 0-.656-.156-.969-.594C23.22 17.97 23 17.273 23 16.5c0-.773.219-1.469.531-1.906c.313-.438.657-.594.969-.594M16 16c-1.332 0-2.262.867-2.719 1.625c-.457.758-.734 1.39-1 1.656c-.156.157-1.12.52-2.125 1.032c-.504.257-1.011.601-1.437 1.125A3.285 3.285 0 0 0 8 23.5c0 1.922 1.578 3.5 3.5 3.5c.867 0 1.77-.277 2.656-.531C15.043 26.215 16 26 16 26s.957.215 1.844.469c.886.254 1.789.531 2.656.531c1.922 0 3.5-1.578 3.5-3.5c0-.793-.293-1.52-.719-2.031c-.426-.512-.937-.828-1.437-1.094c-1-.531-1.985-.953-2.125-1.094c-.239-.238-.508-.89-.969-1.656C18.29 16.859 17.34 16 16 16m0 2c.66 0 .734.16 1.031.656c.297.496.524 1.336 1.25 2.063c.824.824 1.867 1.004 2.625 1.406c.38.203.672.418.844.625c.172.207.25.398.25.75c0 .84-.66 1.5-1.5 1.5c-.29 0-1.223-.223-2.094-.469c-.87-.246-1.59-.531-2.406-.531c-.816 0-1.535.285-2.406.531c-.871.246-1.805.469-2.094.469c-.84 0-1.5-.66-1.5-1.5c0-.402.082-.61.25-.813c.168-.203.473-.402.844-.593c.746-.38 1.781-.532 2.625-1.375c.734-.735.957-1.602 1.25-2.094c.293-.492.363-.625 1.031-.625"/></svg>
</svg>