<svg width="0" height="0" class="hidden">
  <symbol fill="none" xmlns="http://www.w3.org/2000/svg" viewBox="0 0 86 86" id="image">
    <rect width="86" height="86" rx="43" fill="#FFF4DF"></rect>
    <path d="M38.1875 27.875C36.7162 27.875 35.4348 28.711 34.6208 29.8523C33.8068 30.9935 33.375 32.4675 33.375 34.0625C33.375 35.6575 33.8068 37.1329 34.6208 38.2741C35.4348 39.4154 36.7162 40.25 38.1875 40.25C39.6588 40.25 40.9402 39.414 41.7542 38.2728C42.5683 37.1315 43 35.6575 43 34.0625C43 32.4675 42.5683 30.9921 41.7542 29.8509C40.9402 28.7096 39.6588 27.875 38.1875 27.875ZM43 34.0625C43 35.6575 43.4317 37.1329 44.2458 38.2741C45.0597 39.4154 46.3426 40.25 47.8125 40.25C49.2838 40.25 50.5653 39.414 51.3792 38.2728C52.1933 37.1315 52.625 35.6575 52.625 34.0625C52.625 32.4675 52.1933 30.9921 51.3792 29.8509C50.5653 28.7096 49.2838 27.875 47.8125 27.875C46.3412 27.875 45.0597 28.711 44.2458 29.8523C43.4317 30.9935 43 32.4675 43 34.0625ZM38.1875 30.625C38.6165 30.625 39.0895 30.8395 39.5213 31.4418C39.9475 32.0426 40.25 32.9996 40.25 34.0625C40.25 35.1254 39.9475 36.0838 39.5213 36.6833C39.0895 37.2855 38.6165 37.5 38.1875 37.5C37.7585 37.5 37.2855 37.2855 36.8537 36.6833C36.4275 36.0824 36.125 35.1254 36.125 34.0625C36.125 32.9996 36.4275 32.0413 36.8537 31.4418C37.2855 30.8395 37.7585 30.625 38.1875 30.625ZM47.8125 30.625C48.2415 30.625 48.7145 30.8395 49.1462 31.4418C49.5725 32.0426 49.875 32.9996 49.875 34.0625C49.875 35.1254 49.5725 36.0838 49.1462 36.6833C48.7145 37.2855 48.2415 37.5 47.8125 37.5C47.3835 37.5 46.9105 37.2855 46.4788 36.6833C46.0525 36.0824 45.75 35.1254 45.75 34.0625C45.75 32.9996 46.0525 32.0413 46.4788 31.4418C46.9105 30.8395 47.3835 30.625 47.8125 30.625ZM31.3125 37.5C29.8412 37.5 28.5598 38.336 27.7458 39.4773C26.9318 40.6185 26.5 42.0925 26.5 43.6875C26.5 45.2825 26.9318 46.7579 27.7458 47.8991C28.5598 49.0404 29.8412 49.875 31.3125 49.875C32.7838 49.875 34.0652 49.039 34.8792 47.8978C35.6932 46.7565 36.125 45.2825 36.125 43.6875C36.125 42.0925 35.6932 40.6171 34.8792 39.4759C34.0652 38.3346 32.7838 37.5 31.3125 37.5ZM54.6875 37.5C53.2162 37.5 51.9347 38.336 51.1208 39.4773C50.3067 40.6185 49.875 42.0925 49.875 43.6875C49.875 45.2825 50.3067 46.7579 51.1208 47.8991C51.9347 49.0404 53.2162 49.875 54.6875 49.875C56.1588 49.875 57.4403 49.039 58.2542 47.8978C59.0682 46.7565 59.5 45.2825 59.5 43.6875C59.5 42.0925 59.0682 40.6171 58.2542 39.4759C57.4403 38.3346 56.1588 37.5 54.6875 37.5ZM31.3125 40.25C31.7415 40.25 32.2145 40.4645 32.6463 41.0668C33.0725 41.6676 33.375 42.6246 33.375 43.6875C33.375 44.7504 33.0725 45.7088 32.6463 46.3083C32.2145 46.9105 31.7415 47.125 31.3125 47.125C30.8835 47.125 30.4105 46.9105 29.9788 46.3083C29.5525 45.7088 29.25 44.7504 29.25 43.6875C29.25 42.6246 29.5525 41.6663 29.9788 41.0668C30.4105 40.4645 30.8835 40.25 31.3125 40.25ZM54.6875 40.25C55.1165 40.25 55.5895 40.4645 56.0212 41.0668C56.4475 41.6676 56.75 42.6246 56.75 43.6875C56.75 44.7504 56.4475 45.7088 56.0212 46.3083C55.5895 46.9105 55.1165 47.125 54.6875 47.125C54.2585 47.125 53.7855 46.9105 53.3538 46.3083C52.9275 45.7074 52.625 44.7504 52.625 43.6875C52.625 42.6246 52.9275 41.6663 53.3538 41.0668C53.7855 40.4645 54.2585 40.25 54.6875 40.25ZM43 43C41.1671 43 39.8884 44.1894 39.26 45.2344C38.6357 46.2794 38.2507 47.1484 37.885 47.5114C37.6746 47.7273 36.3478 48.2264 34.9645 48.9318C34.2729 49.2851 33.5757 49.7568 32.9886 50.4786C32.3974 51.2005 31.9986 52.1974 31.9986 53.3153C31.9986 55.9553 34.1711 58.1278 36.8111 58.1278C38.0019 58.1278 39.2449 57.7428 40.4618 57.399C41.6841 57.047 43 56.75 43 56.75C43 56.75 44.3159 57.047 45.5355 57.3963C46.7537 57.74 47.9967 58.125 49.1875 58.125C51.8275 58.125 54 55.9525 54 53.3125C54 52.2208 53.5971 51.2225 53.01 50.5213C52.4256 49.8159 51.7216 49.38 51.0355 49.0156C49.6605 48.2869 48.3089 47.7094 48.1136 47.5114C47.7836 47.1855 47.4124 46.2876 46.7799 45.2371C46.1488 44.1825 44.8425 43 43 43ZM43 45.75C43.9075 45.75 44.0079 45.97 44.4163 46.652C44.8288 47.3326 45.1368 48.489 46.135 49.4886C47.2694 50.6161 48.7021 50.8636 49.7458 51.4191C50.2682 51.6969 50.667 51.9925 50.9062 52.2785C51.1441 52.5631 51.25 52.823 51.25 53.3098C51.25 54.4648 50.3425 55.3723 49.1875 55.3723C48.7887 55.3723 47.5045 55.0698 46.3083 54.726C45.112 54.3864 44.122 53.9973 43 53.9973C41.878 53.9973 40.888 54.3864 39.6917 54.726C38.4955 55.0698 37.2113 55.3723 36.8125 55.3723C35.6575 55.3723 34.75 54.4648 34.75 53.3098C34.75 52.7556 34.8655 52.471 35.0938 52.1905C35.322 51.9114 35.7428 51.635 36.2542 51.3751C37.2773 50.8526 38.7017 50.6464 39.8636 49.4845C40.8715 48.4711 41.174 47.2776 41.5824 46.6039C41.9839 45.9301 42.0801 45.7445 42.9986 45.7445L43 45.75Z" fill="#F6B83D"></path>
  </symbol>
    <symbol fill="none" xmlns="http://www.w3.org/2000/svg" viewBox="0 0 44 44" id="icons8">
    <path d="M17.1875 6.875C15.7162 6.875 14.4348 7.711 13.6208 8.85225C12.8068 9.9935 12.375 11.4675 12.375 13.0625C12.375 14.6575 12.8068 16.1329 13.6208 17.2741C14.4348 18.4154 15.7162 19.25 17.1875 19.25C18.6588 19.25 19.9402 18.414 20.7542 17.2728C21.5683 16.1315 22 14.6575 22 13.0625C22 11.4675 21.5683 9.99213 20.7542 8.85087C19.9402 7.70962 18.6588 6.875 17.1875 6.875ZM22 13.0625C22 14.6575 22.4317 16.1329 23.2458 17.2741C24.0597 18.4154 25.3426 19.25 26.8125 19.25C28.2838 19.25 29.5653 18.414 30.3792 17.2728C31.1933 16.1315 31.625 14.6575 31.625 13.0625C31.625 11.4675 31.1933 9.99213 30.3792 8.85087C29.5653 7.70962 28.2838 6.875 26.8125 6.875C25.3412 6.875 24.0597 7.711 23.2458 8.85225C22.4317 9.9935 22 11.4675 22 13.0625ZM17.1875 9.625C17.6165 9.625 18.0895 9.8395 18.5213 10.4418C18.9475 11.0426 19.25 11.9996 19.25 13.0625C19.25 14.1254 18.9475 15.0838 18.5213 15.6833C18.0895 16.2855 17.6165 16.5 17.1875 16.5C16.7585 16.5 16.2855 16.2855 15.8537 15.6833C15.4275 15.0824 15.125 14.1254 15.125 13.0625C15.125 11.9996 15.4275 11.0413 15.8537 10.4418C16.2855 9.8395 16.7585 9.625 17.1875 9.625ZM26.8125 9.625C27.2415 9.625 27.7145 9.8395 28.1462 10.4418C28.5725 11.0426 28.875 11.9996 28.875 13.0625C28.875 14.1254 28.5725 15.0838 28.1462 15.6833C27.7145 16.2855 27.2415 16.5 26.8125 16.5C26.3835 16.5 25.9105 16.2855 25.4788 15.6833C25.0525 15.0824 24.75 14.1254 24.75 13.0625C24.75 11.9996 25.0525 11.0413 25.4788 10.4418C25.9105 9.8395 26.3835 9.625 26.8125 9.625ZM10.3125 16.5C8.84125 16.5 7.55975 17.336 6.74575 18.4773C5.93175 19.6185 5.5 21.0925 5.5 22.6875C5.5 24.2825 5.93175 25.7579 6.74575 26.8991C7.55975 28.0404 8.84125 28.875 10.3125 28.875C11.7838 28.875 13.0652 28.039 13.8792 26.8978C14.6932 25.7565 15.125 24.2825 15.125 22.6875C15.125 21.0925 14.6932 19.6171 13.8792 18.4759C13.0652 17.3346 11.7838 16.5 10.3125 16.5ZM33.6875 16.5C32.2162 16.5 30.9347 17.336 30.1208 18.4773C29.3067 19.6185 28.875 21.0925 28.875 22.6875C28.875 24.2825 29.3067 25.7579 30.1208 26.8991C30.9347 28.0404 32.2162 28.875 33.6875 28.875C35.1588 28.875 36.4403 28.039 37.2542 26.8978C38.0682 25.7565 38.5 24.2825 38.5 22.6875C38.5 21.0925 38.0682 19.6171 37.2542 18.4759C36.4403 17.3346 35.1588 16.5 33.6875 16.5ZM10.3125 19.25C10.7415 19.25 11.2145 19.4645 11.6463 20.0668C12.0725 20.6676 12.375 21.6246 12.375 22.6875C12.375 23.7504 12.0725 24.7088 11.6463 25.3083C11.2145 25.9105 10.7415 26.125 10.3125 26.125C9.8835 26.125 9.4105 25.9105 8.97875 25.3083C8.5525 24.7088 8.25 23.7504 8.25 22.6875C8.25 21.6246 8.5525 20.6663 8.97875 20.0668C9.4105 19.4645 9.8835 19.25 10.3125 19.25ZM33.6875 19.25C34.1165 19.25 34.5895 19.4645 35.0212 20.0668C35.4475 20.6676 35.75 21.6246 35.75 22.6875C35.75 23.7504 35.4475 24.7088 35.0212 25.3083C34.5895 25.9105 34.1165 26.125 33.6875 26.125C33.2585 26.125 32.7855 25.9105 32.3538 25.3083C31.9275 24.7074 31.625 23.7504 31.625 22.6875C31.625 21.6246 31.9275 20.6663 32.3538 20.0668C32.7855 19.4645 33.2585 19.25 33.6875 19.25ZM22 22C20.1671 22 18.8884 23.1894 18.26 24.2344C17.6357 25.2794 17.2507 26.1484 16.885 26.5114C16.6746 26.7273 15.3478 27.2264 13.9645 27.9318C13.2729 28.2851 12.5757 28.7568 11.9886 29.4786C11.3974 30.2005 10.9986 31.1974 10.9986 32.3153C10.9986 34.9553 13.1711 37.1278 15.8111 37.1278C17.0019 37.1278 18.2449 36.7428 19.4618 36.399C20.6841 36.047 22 35.75 22 35.75C22 35.75 23.3159 36.047 24.5355 36.3963C25.7537 36.74 26.9967 37.125 28.1875 37.125C30.8275 37.125 33 34.9525 33 32.3125C33 31.2208 32.5971 30.2225 32.01 29.5213C31.4256 28.8159 30.7216 28.38 30.0355 28.0156C28.6605 27.2869 27.3089 26.7094 27.1136 26.5114C26.7836 26.1855 26.4124 25.2876 25.7799 24.2371C25.1488 23.1825 23.8425 22 22 22ZM22 24.75C22.9075 24.75 23.0079 24.97 23.4163 25.652C23.8288 26.3326 24.1368 27.489 25.135 28.4886C26.2694 29.6161 27.7021 29.8636 28.7458 30.4191C29.2682 30.6969 29.667 30.9925 29.9062 31.2785C30.1441 31.5631 30.25 31.823 30.25 32.3098C30.25 33.4648 29.3425 34.3723 28.1875 34.3723C27.7887 34.3723 26.5045 34.0698 25.3083 33.726C24.112 33.3864 23.122 32.9973 22 32.9973C20.878 32.9973 19.888 33.3864 18.6917 33.726C17.4955 34.0698 16.2113 34.3723 15.8125 34.3723C14.6575 34.3723 13.75 33.4648 13.75 32.3098C13.75 31.7556 13.8655 31.471 14.0938 31.1905C14.322 30.9114 14.7428 30.635 15.2542 30.3751C16.2773 29.8526 17.7017 29.6464 18.8636 28.4845C19.8715 27.4711 20.174 26.2776 20.5824 25.6039C20.9839 24.9301 21.0801 24.7445 21.9986 24.7445L22 24.75Z" fill="#F6B83D"></path>
  </symbol>
    <symbol fill="none" xmlns="http://www.w3.org/2000/svg" viewBox="0 0 24 24" id="male">
    <path d="M12 11C9.23858 11 7 13.2386 7 16C7 18.7614 9.23858 21 12 21C14.7614 21 17 18.7614 17 16C17 13.2386 14.7614 11 12 11ZM12 11V3M12 3L16 7M12 3L8 7" stroke="#54ADFF" stroke-width="1.5" stroke-linecap="round" stroke-linejoin="round"></path>
  </symbol>
 
</svg>

