<svg width="0" height="0" class="hidden">
  <symbol fill="none" xmlns="http://www.w3.org/2000/svg" viewBox="0 0 18 18" id="people">
    <path d="M8.99989 11.25C6.62233 11.25 4.50799 12.398 3.16188 14.1795C2.87217 14.5629 2.72731 14.7546 2.73205 15.0137C2.73571 15.2139 2.86141 15.4664 3.01891 15.59C3.22278 15.75 3.50529 15.75 4.07031 15.75H13.9295C14.4945 15.75 14.777 15.75 14.9809 15.59C15.1384 15.4664 15.2641 15.2139 15.2677 15.0137C15.2725 14.7546 15.1276 14.5629 14.8379 14.1795C13.4918 12.398 11.3774 11.25 8.99989 11.25Z" fill="white" stroke="white" stroke-width="2" stroke-linecap="round" stroke-linejoin="round"></path>
    <path d="M9 9C10.864 9 12.375 7.48896 12.375 5.625C12.375 3.76104 10.864 2.25 9 2.25C7.13604 2.25 5.625 3.76104 5.625 5.625C5.625 7.48896 7.13604 9 9 9Z" fill="white" stroke="white" stroke-width="2" stroke-linecap="round" stroke-linejoin="round"></path>
  </symbol>
  <symbol fill="none" xmlns="http://www.w3.org/2000/svg" viewBox="0 0 18 18" id="upload-cloud">
    <path d="M12 12L9 9L6 12" stroke="#F6B83D" stroke-width="1.3" stroke-linecap="round" stroke-linejoin="round"></path>
    <path d="M9 9V15.75" stroke="#F6B83D" stroke-width="1.3" stroke-linecap="round" stroke-linejoin="round"></path>
    <path d="M15.2926 13.7926C16.0241 13.3938 16.602 12.7628 16.935 11.9991C17.268 11.2354 17.3372 10.3825 17.1317 9.57513C16.9262 8.76772 16.4577 8.05174 15.8001 7.54019C15.1425 7.02865 14.3332 6.75066 13.5001 6.75011H12.5551C12.3281 5.87204 11.905 5.05686 11.3175 4.36585C10.7301 3.67485 9.99372 3.126 9.16366 2.76057C8.3336 2.39513 7.4315 2.22263 6.52518 2.25602C5.61885 2.28941 4.73189 2.52784 3.93097 2.95336C3.13006 3.37888 2.43602 3.98044 1.90106 4.7128C1.36609 5.44516 1.00411 6.28926 0.842327 7.18166C0.680545 8.07405 0.723171 8.99151 0.967002 9.86505C1.21083 10.7386 1.64952 11.5455 2.25009 12.2251" stroke="#F6B83D" stroke-width="1.3" stroke-linecap="round" stroke-linejoin="round"></path>
    <path d="M12 12L9 9L6 12" stroke="#F6B83D" stroke-width="1.3" stroke-linecap="round" stroke-linejoin="round"></path>
  </symbol>

</svg>
